<?xml version="1.0" encoding="utf-8"?>
<!-- Generator: Adobe Illustrator 25.2.1, SVG Export Plug-In . SVG Version: 6.00 Build 0)  -->
<svg version="1.1" id="Layer_1" xmlns="http://www.w3.org/2000/svg" xmlns:xlink="http://www.w3.org/1999/xlink" x="0px" y="0px"
	 viewBox="0 0 52.2 44.3" style="enable-background:new 0 0 52.2 44.3;" xml:space="preserve">
<style type="text/css">
	.st0{fill:url(#SVGID_1_);}
	.st1{fill:url(#SVGID_2_);}
	.st2{fill:url(#SVGID_3_);}
</style>
<g>
	<g>
		<g>
			<g>
				<g>
					<linearGradient id="SVGID_1_" gradientUnits="userSpaceOnUse" x1="8.9473" y1="34.1748" x2="47.977" y2="34.1748">
						<stop  offset="0" style="stop-color:#8CC449"/>
						<stop  offset="1" style="stop-color:#0A9D4F"/>
					</linearGradient>
					<path class="st0" d="M48,28.2c-0.1,1.1-0.7,2.3-2,3c-5.2,2.8-10.4,5.6-15.6,8.3c-0.7,0.4-1.4,0.5-2.2,0.5
						c-4,0.1-8.1,0.4-12.1,0.3c-2.2,0-3.8,0.9-5.3,2.3c-0.4,0.4-0.8,1.4-1.5,0.7c-0.8-0.7,0.2-1.2,0.6-1.6c1.8-1.9,3.9-2.8,6.6-2.8
						c3.8,0.1,7.7-0.1,11.5-0.2c0.8,0,1.5-0.2,2.2-0.6c5-2.7,10-5.4,15.1-8.1c0.2-0.1,0.3-0.2,0.5-0.3c1-0.7,1.3-1.9,0.8-2.8
						c-0.5-0.9-1.6-1.2-2.7-0.7c-1.7,0.8-3.4,1.7-5.1,2.6c-0.9,0.5-1.8,0.9-2.8,1.4c-0.4,0.2-0.8,0.3-1.1-0.2
						c-0.2-0.5,0.1-0.8,0.5-1c2.7-1.4,5.3-2.8,8-4C45.6,24,48,25.6,48,28.2z"/>
				</g>
				<g>
					<linearGradient id="SVGID_2_" gradientUnits="userSpaceOnUse" x1="3.6322" y1="31.2844" x2="33.423" y2="31.2844">
						<stop  offset="0" style="stop-color:#8CC449"/>
						<stop  offset="1" style="stop-color:#0A9D4F"/>
					</linearGradient>
					<path class="st1" d="M25.3,29.2c-2.6,0-5.1-0.3-7.7-0.8c-2.7-0.5-5.2-0.1-7.2,2c-1.6,1.7-3.5,3.2-5.2,4.8
						c-0.4,0.4-0.8,0.9-1.4,0.3c-0.5-0.6,0.1-1,0.4-1.3c2-1.9,4-3.7,6-5.5c2.1-1.8,4.7-2.2,7.2-1.6c3.9,0.9,7.8,0.8,11.7,0.8
						c0.7,0,1.3,0,1.9,0.3c1.4,0.5,2.4,1.8,2.3,3.2c0,1.4-1.1,2.7-2.5,3.2c-0.6,0.2-1.3,0.2-1.9,0.2c-2.3,0-4.6,0-7,0
						c-0.5,0-1.1,0-1.1-0.7c0-0.6,0.6-0.7,1.1-0.7c2.1,0,4.3,0,6.4,0c0.5,0,0.9,0,1.4,0c1.3-0.1,2.3-1,2.3-2.1c0-1.1-0.9-2-2.2-2
						C28.4,29.1,26.8,29.2,25.3,29.2z"/>
				</g>
			</g>
		</g>
		<g>
			<g>
				<linearGradient id="SVGID_3_" gradientUnits="userSpaceOnUse" x1="13.9473" y1="13.3648" x2="48.5678" y2="13.3648">
					<stop  offset="0" style="stop-color:#8CC449"/>
					<stop  offset="1" style="stop-color:#0A9D4F"/>
				</linearGradient>
				<path class="st2" d="M47.5,4c-3.9-0.4-7.7-0.6-11.6-0.3c-2.4,0.2-4.7,1-6.4,2.8c-2.4,2.5-2.8,5.5-1.7,8.7
					c0.1,0.4,0.5,0.8-0.1,1.3c-1.1,0.7-1.9,1.7-3,2.9c-0.7-2.5-1.3-4.9-2.3-7.1c-0.1-0.3,0-0.5,0.1-0.8c1.1-2.3,0.6-4.5-0.8-6.4
					C20.2,3,18,1.7,15.5,0.8c-1-0.4-1.2,0-1.3,0.8c-0.4,2.4-0.2,4.7,0.7,6.9c1.1,2.5,2.8,4.4,5.8,4.3c0.5,0,0.6,0.3,0.8,0.7
					c0.8,2,1.5,4,1.9,6.1c0.3,1.8,0.7,3.7,0.7,5.5c0,0.5,0.2,0.9,0.8,0.9c0.7,0,0.6-0.5,0.6-1c0-0.4,0-0.8-0.1-1.1
					c-0.8-2.1,0.2-3.6,1.7-5c0.3-0.3,0.7-0.6,1-0.9c0.5-0.6,0.9-0.5,1.4,0.1c1.5,1.8,3.5,3,5.9,2.9c3.3-0.1,5.8-1.9,7.6-4.5
					c2.4-3.4,3.9-7.2,5.4-11C48.8,4.6,48.5,4.1,47.5,4z M20.9,11.4c-1,0.7-2,0-2.8-0.6c-1.8-1.3-2.8-3.7-2.8-6.7c0-2,0.1-2,1.8-1
					c2.2,1.3,4.1,2.8,4.5,5.5C21.8,9.6,21.9,10.7,20.9,11.4z M46.6,6.5c-1.3,3.2-2.6,6.3-4.6,9.1c-1,1.5-2.3,2.6-4,3.3
					c-2.7,1.3-5.8,0.6-7.6-1.7c-0.2-0.2-0.4-0.4-0.1-0.8c0.9-1.1,2.6-1.5,3.9-0.8c0.7,0.3,1.4,0.7,2,1c0.4,0.2,1,0.5,1.3-0.1
					c0.3-0.6-0.3-0.8-0.7-1.1c-0.6-0.3-1.2-0.7-1.8-0.9c-0.9-0.4-0.6-0.6,0-1c2.1-1.3,4.1-2.6,6.2-3.9c0.2-0.1,0.4-0.3,0.7-0.4
					c0.4-0.2,0.6-0.6,0.4-1c-0.3-0.5-0.7-0.3-1.1-0.1c-1.1,0.7-2.3,1.4-3.4,2.1c-0.7,0.4-0.8,0.2-0.8-0.5c0-0.6,0.5-1.6-0.5-1.7
					c-1.1-0.1-0.8,1.1-0.7,1.7c0.2,1.5-0.5,2.3-1.7,2.9c-1.3,0.7-2.6,1.5-3.9,2.4c-0.6,0.4-0.9,0.4-1.2-0.3c-1-2.7-0.2-5.8,2.1-7.6
					c0.3-0.3,0.6-0.6,1.1-0.7c0.4-0.4,0.9-0.5,1.4-0.6C35.3,5,37.1,5.1,38.8,5c2.3-0.1,4.6-0.1,6.9,0.3C47,5.4,47.1,5.4,46.6,6.5z"
					/>
			</g>
		</g>
	</g>
</g>
</svg>
