<?xml version="1.0" encoding="utf-8"?>
<!-- Generator: Adobe Illustrator 25.2.1, SVG Export Plug-In . SVG Version: 6.00 Build 0)  -->
<svg version="1.1" id="Layer_1" xmlns="http://www.w3.org/2000/svg" xmlns:xlink="http://www.w3.org/1999/xlink" x="0px" y="0px"
	 viewBox="0 0 130.2 40.1" style="enable-background:new 0 0 130.2 40.1;" xml:space="preserve">
<style type="text/css">
	.st0{fill:#FFFFFF;}
</style>
<g>
	<g>
		<g>
			<g>
				<g>
					<g>
						<path class="st0" d="M37.9,25c-0.1,0.9-0.6,1.9-1.7,2.4c-4.2,2.3-8.5,4.5-12.7,6.8c-0.6,0.3-1.2,0.4-1.8,0.4
							c-3.3,0.1-6.6,0.3-9.9,0.2c-1.8,0-3.1,0.7-4.4,1.9c-0.3,0.3-0.7,1.1-1.2,0.6c-0.6-0.6,0.2-1,0.5-1.3c1.4-1.5,3.1-2.3,5.4-2.3
							c3.1,0.1,6.3-0.1,9.4-0.2c0.6,0,1.2-0.2,1.8-0.5c4.1-2.2,8.2-4.4,12.3-6.6c0.1-0.1,0.3-0.1,0.4-0.2c0.8-0.6,1-1.6,0.6-2.3
							c-0.4-0.7-1.3-1-2.2-0.6c-1.4,0.7-2.8,1.4-4.2,2.1c-0.7,0.4-1.5,0.7-2.2,1.1c-0.3,0.2-0.7,0.2-0.9-0.2
							c-0.2-0.4,0.1-0.6,0.4-0.8c2.2-1.1,4.3-2.3,6.6-3.3C36,21.6,37.9,22.8,37.9,25z"/>
					</g>
					<g>
						<path class="st0" d="M19.4,25.8c-2.1,0-4.2-0.2-6.3-0.6c-2.2-0.4-4.2-0.1-5.9,1.6c-1.3,1.4-2.8,2.6-4.2,3.9
							C2.6,31,2.3,31.4,1.9,31c-0.4-0.5,0-0.8,0.4-1.1c1.6-1.5,3.3-3.1,4.9-4.5C8.9,23.9,11,23.6,13,24c3.2,0.7,6.3,0.6,9.5,0.7
							c0.5,0,1.1,0,1.6,0.2c1.1,0.4,1.9,1.5,1.9,2.6c0,1.2-0.9,2.2-2.1,2.6c-0.5,0.2-1,0.2-1.6,0.2c-1.9,0-3.8,0-5.7,0
							c-0.4,0-0.9,0-0.9-0.5c0-0.5,0.5-0.5,0.9-0.5c1.7,0,3.5,0,5.2,0c0.4,0,0.7,0,1.1,0c1.1-0.1,1.9-0.8,1.9-1.7
							c0-0.9-0.7-1.6-1.8-1.7C21.9,25.8,20.7,25.8,19.4,25.8z"/>
					</g>
				</g>
			</g>
			<g>
				<g>
					<path class="st0" d="M37.5,5.3c-3.2-0.3-6.3-0.5-9.5-0.2c-2,0.2-3.8,0.8-5.3,2.3c-2,2.1-2.3,4.5-1.4,7.1c0.1,0.4,0.4,0.7-0.1,1
						c-0.9,0.6-1.6,1.4-2.4,2.3c-0.5-2.1-1.1-4-1.9-5.8c-0.1-0.2,0-0.4,0.1-0.6c0.9-1.9,0.5-3.7-0.7-5.3c-1.2-1.8-3.1-2.8-5.1-3.6
						c-0.8-0.3-1,0-1.1,0.7C10,5.2,10.1,7.2,10.9,9c0.9,2.1,2.3,3.6,4.7,3.5c0.4,0,0.5,0.3,0.6,0.5c0.7,1.6,1.2,3.2,1.5,5
						c0.3,1.5,0.5,3,0.6,4.5c0,0.4,0.1,0.8,0.6,0.8c0.5,0,0.5-0.4,0.5-0.8c0-0.3,0-0.6-0.1-0.9c-0.6-1.7,0.2-3,1.4-4.1
						c0.3-0.2,0.6-0.5,0.8-0.7c0.4-0.5,0.7-0.4,1.1,0.1c1.2,1.5,2.9,2.4,4.8,2.4c2.7-0.1,4.7-1.6,6.2-3.7c2-2.7,3.2-5.9,4.4-9
						C38.6,5.7,38.3,5.3,37.5,5.3z M15.8,11.2c-0.8,0.5-1.6,0-2.3-0.5c-1.5-1.1-2.3-3-2.3-5.5c0-1.6,0-1.7,1.5-0.8
						c1.8,1,3.3,2.3,3.7,4.5C16.5,9.8,16.6,10.7,15.8,11.2z M36.8,7.3c-1,2.6-2.1,5.1-3.8,7.4c-0.8,1.2-1.9,2.1-3.2,2.7
						c-2.2,1.1-4.7,0.5-6.2-1.4c-0.1-0.2-0.4-0.3-0.1-0.6c0.8-0.9,2.1-1.2,3.2-0.7c0.6,0.3,1.1,0.6,1.7,0.8c0.4,0.2,0.8,0.4,1-0.1
						c0.3-0.5-0.2-0.7-0.6-0.9c-0.5-0.3-1-0.6-1.5-0.8c-0.7-0.3-0.5-0.5,0-0.8c1.7-1,3.4-2.1,5.1-3.1c0.2-0.1,0.4-0.2,0.6-0.3
						c0.3-0.2,0.5-0.5,0.3-0.8c-0.2-0.4-0.6-0.3-0.9-0.1c-0.9,0.6-1.9,1.1-2.8,1.7c-0.5,0.4-0.7,0.2-0.7-0.4c0-0.5,0.4-1.3-0.4-1.4
						c-0.9-0.1-0.7,0.9-0.6,1.4c0.1,1.2-0.4,1.9-1.4,2.4c-1.1,0.6-2.1,1.3-3.2,1.9c-0.5,0.3-0.7,0.3-0.9-0.3
						c-0.8-2.2-0.2-4.7,1.7-6.2c0.3-0.3,0.5-0.5,0.9-0.6c0.3-0.3,0.7-0.4,1.2-0.5c1.4-0.6,2.8-0.6,4.3-0.6c1.9,0,3.8-0.1,5.7,0.2
						C37.1,6.3,37.2,6.3,36.8,7.3z"/>
				</g>
			</g>
		</g>
	</g>
	<g>
		<g>
			<path class="st0" d="M51.7,21.1H47V25h5.5v1.2h-7v-11h6.9v1.2H47v3.5h4.8V21.1z"/>
			<path class="st0" d="M57.2,25.2c0.5,0,0.9-0.2,1.3-0.5c0.4-0.3,0.6-0.7,0.6-1.1h1.3c0,0.5-0.2,0.9-0.5,1.3
				c-0.3,0.4-0.7,0.8-1.2,1c-0.5,0.3-1,0.4-1.6,0.4c-1.1,0-2-0.4-2.7-1.1c-0.7-0.7-1-1.8-1-3v-0.2c0-0.8,0.1-1.5,0.4-2.1
				c0.3-0.6,0.7-1.1,1.3-1.4c0.5-0.3,1.2-0.5,1.9-0.5c0.9,0,1.7,0.3,2.3,0.8c0.6,0.5,0.9,1.3,1,2.1h-1.3c0-0.5-0.2-1-0.6-1.3
				c-0.4-0.3-0.8-0.5-1.3-0.5c-0.7,0-1.3,0.3-1.7,0.8C55.2,20.3,55,21,55,22v0.3c0,0.9,0.2,1.7,0.6,2.2S56.5,25.2,57.2,25.2z"/>
			<path class="st0" d="M61.7,22c0-0.8,0.2-1.5,0.5-2.2c0.3-0.6,0.8-1.1,1.3-1.5c0.6-0.3,1.2-0.5,1.9-0.5c1.1,0,2,0.4,2.7,1.2
				c0.7,0.8,1,1.8,1,3.1v0.1c0,0.8-0.2,1.5-0.5,2.1s-0.7,1.1-1.3,1.5s-1.2,0.5-2,0.5c-1.1,0-2-0.4-2.7-1.2S61.7,23.4,61.7,22
				L61.7,22z M63.1,22.2c0,0.9,0.2,1.6,0.6,2.2s1,0.8,1.7,0.8c0.7,0,1.3-0.3,1.7-0.8c0.4-0.6,0.6-1.3,0.6-2.3c0-0.9-0.2-1.6-0.6-2.2
				c-0.4-0.6-1-0.8-1.7-0.8c-0.7,0-1.2,0.3-1.7,0.8S63.1,21.1,63.1,22.2z"/>
			<path class="st0" d="M73.8,22.1h-3.7v-1.1h3.7V22.1z"/>
			<path class="st0" d="M78.4,25.2c0.5,0,0.9-0.2,1.3-0.5c0.4-0.3,0.6-0.7,0.6-1.1h1.3c0,0.5-0.2,0.9-0.5,1.3
				c-0.3,0.4-0.7,0.8-1.2,1s-1,0.4-1.6,0.4c-1.1,0-2-0.4-2.7-1.1s-1-1.8-1-3v-0.2c0-0.8,0.1-1.5,0.4-2.1c0.3-0.6,0.7-1.1,1.3-1.4
				c0.5-0.3,1.2-0.5,1.9-0.5c0.9,0,1.7,0.3,2.3,0.8s0.9,1.3,1,2.1h-1.3c0-0.5-0.2-1-0.6-1.3c-0.4-0.3-0.8-0.5-1.3-0.5
				c-0.7,0-1.3,0.3-1.7,0.8c-0.4,0.5-0.6,1.2-0.6,2.2v0.3c0,0.9,0.2,1.7,0.6,2.2S77.7,25.2,78.4,25.2z"/>
			<path class="st0" d="M82.9,22c0-0.8,0.2-1.5,0.5-2.2c0.3-0.6,0.8-1.1,1.3-1.5c0.6-0.3,1.2-0.5,1.9-0.5c1.1,0,2,0.4,2.7,1.2
				c0.7,0.8,1,1.8,1,3.1v0.1c0,0.8-0.2,1.5-0.5,2.1s-0.7,1.1-1.3,1.5s-1.2,0.5-2,0.5c-1.1,0-2-0.4-2.7-1.2
				C83.2,24.4,82.9,23.4,82.9,22L82.9,22z M84.3,22.2c0,0.9,0.2,1.6,0.6,2.2c0.4,0.5,1,0.8,1.7,0.8c0.7,0,1.3-0.3,1.7-0.8
				c0.4-0.6,0.6-1.3,0.6-2.3c0-0.9-0.2-1.6-0.6-2.2c-0.4-0.6-1-0.8-1.7-0.8c-0.7,0-1.2,0.3-1.7,0.8S84.3,21.1,84.3,22.2z"/>
			<path class="st0" d="M93.4,18l0,1c0.6-0.8,1.4-1.2,2.4-1.2c1.7,0,2.6,1,2.6,2.9v5.4h-1.4v-5.4c0-0.6-0.1-1-0.4-1.3
				C96.4,19.2,96,19,95.4,19c-0.5,0-0.9,0.1-1.2,0.4c-0.3,0.2-0.6,0.6-0.8,1v5.8H92V18H93.4z"/>
			<path class="st0" d="M101.9,18l0,1c0.6-0.8,1.4-1.2,2.4-1.2c1.7,0,2.6,1,2.6,2.9v5.4h-1.4v-5.4c0-0.6-0.1-1-0.4-1.3
				c-0.3-0.3-0.7-0.4-1.2-0.4c-0.5,0-0.9,0.1-1.2,0.4c-0.3,0.2-0.6,0.6-0.8,1v5.8h-1.4V18H101.9z"/>
			<path class="st0" d="M112.5,26.3c-1.1,0-2-0.4-2.7-1.1c-0.7-0.7-1-1.7-1-2.9V22c0-0.8,0.2-1.5,0.5-2.2c0.3-0.6,0.7-1.1,1.3-1.5
				s1.2-0.5,1.8-0.5c1.1,0,1.9,0.4,2.5,1c0.6,0.7,0.9,1.7,0.9,3v0.6h-5.5c0,0.8,0.3,1.5,0.7,2c0.5,0.5,1,0.7,1.7,0.7
				c0.5,0,0.9-0.1,1.3-0.3c0.3-0.2,0.6-0.5,0.9-0.8l0.9,0.7C114.9,25.8,113.9,26.3,112.5,26.3z M112.3,19c-0.6,0-1,0.2-1.4,0.6
				c-0.4,0.4-0.6,1-0.7,1.7h4.1v-0.1c0-0.7-0.2-1.3-0.6-1.7C113.4,19.2,112.9,19,112.3,19z"/>
			<path class="st0" d="M120.6,25.2c0.5,0,0.9-0.2,1.3-0.5c0.4-0.3,0.6-0.7,0.6-1.1h1.3c0,0.5-0.2,0.9-0.5,1.3
				c-0.3,0.4-0.7,0.8-1.2,1s-1,0.4-1.6,0.4c-1.1,0-2-0.4-2.7-1.1s-1-1.8-1-3v-0.2c0-0.8,0.1-1.5,0.4-2.1c0.3-0.6,0.7-1.1,1.3-1.4
				c0.5-0.3,1.2-0.5,1.9-0.5c0.9,0,1.7,0.3,2.3,0.8s0.9,1.3,1,2.1h-1.3c0-0.5-0.2-1-0.6-1.3c-0.4-0.3-0.8-0.5-1.3-0.5
				c-0.7,0-1.3,0.3-1.7,0.8c-0.4,0.5-0.6,1.2-0.6,2.2v0.3c0,0.9,0.2,1.7,0.6,2.2S119.9,25.2,120.6,25.2z"/>
			<path class="st0" d="M127.3,16v2h1.5v1.1h-1.5v5.1c0,0.3,0.1,0.6,0.2,0.7s0.4,0.2,0.7,0.2c0.2,0,0.4,0,0.7-0.1v1.1
				c-0.4,0.1-0.7,0.2-1.1,0.2c-0.6,0-1.1-0.2-1.4-0.6c-0.3-0.4-0.5-0.9-0.5-1.6v-5.1h-1.5V18h1.5v-2H127.3z"/>
		</g>
	</g>
</g>
</svg>
